<mxfile host="app.diagrams.net" modified="2023-12-25T01:20:47.196Z" agent="Mozilla/5.0 (Windows NT 10.0; Win64; x64) AppleWebKit/537.36 (KHTML, like Gecko) Chrome/120.0.0.0 Safari/537.36" version="22.1.11" etag="oyr8tp9FJI-OyxBH4HZj" type="github">
  <diagram name="第 1 页" id="wio3PMEBgDNz_yqVY8nz">
    <mxGraphModel>
      <root>
        <mxCell id="0" />
        <mxCell id="1" parent="0" />
      </root>
    </mxGraphModel>
  </diagram>
</mxfile>
